<!DOCTYPE svg PUBLIC "-//W3C//DTD SVG 1.1//EN" "http://www.w3.org/Graphics/SVG/1.1/DTD/svg11.dtd">
<!-- Uploaded to: SVG Repo, www.svgrepo.com, Transformed by: SVG Repo Mixer Tools -->
<svg height="800px" width="800px" version="1.1" id="Layer_1" xmlns="http://www.w3.org/2000/svg" xmlns:xlink="http://www.w3.org/1999/xlink" viewBox="-25.6 -25.6 563.20 563.20" xml:space="preserve" fill="#0060fa" transform="rotate(180)" stroke="#0060fa" stroke-width="5.12001">
<g id="SVGRepo_bgCarrier" stroke-width="0"/>
<g id="SVGRepo_tracerCarrier" stroke-linecap="round" stroke-linejoin="round" stroke="#5b1abc" stroke-width="1.0240019999999999"/>
<g id="SVGRepo_iconCarrier"> <g> <polygon style="fill:#f0f8ff;" points="94.976,258.988 135.322,264.807 104.184,309.882 76.453,304.053 "/> <polygon style="fill:#f0f8ff;" points="336.448,116.441 339.855,160.653 376.521,149.17 379.856,122.916 "/> </g> <circle style="fill:#f0f8ff;" cx="256.005" cy="255.994" r="161.065"/> <path style="opacity:0.1;enable-background:new ;" d="M296.615,386.602c-88.953,0-161.062-72.11-161.062-161.062 c0-43.563,17.302-83.08,45.401-112.073C129.807,140.452,94.939,194.15,94.939,256c0,88.952,72.11,161.062,161.062,161.062 c45.389,0,86.386-18.782,115.662-48.99C349.25,379.898,323.717,386.602,296.615,386.602z"/> <path style="fill:#f0f8ff;" d="M506.346,108.288c-8.834-14.972-25.725-22.564-50.208-22.564c-29.46,0-71.442,11.045-119.691,30.716 c15.072,8.707,28.595,19.79,40.073,32.729c34.878-12.584,62.339-18.549,79.618-18.549c5.405,0,8.731,0.575,10.623,1.088 c-1.742,7.432-12.089,27.129-47.349,59.953c-3.71,3.454-7.584,6.942-11.597,10.455c-34.557,30.255-79.938,62.411-129.522,91.667 c-54.429,32.115-103.366,54.815-142.815,69.047c-34.878,12.584-62.339,18.549-79.618,18.549c-5.405,0-8.731-0.575-10.623-1.088 c1.742-7.432,12.089-27.129,47.348-59.954c3.71-3.454,7.584-6.942,11.597-10.455c-5.664-15.959-8.883-33.072-9.208-50.895 c-15.512,12.524-29.585,24.932-41.871,36.976c-19.655,19.268-34.017,36.92-42.686,52.463c-12.054,21.615-13.657,40.215-4.764,55.288 c8.834,14.971,25.727,22.563,50.208,22.563c29.46,0,71.442-11.045,119.691-30.718c38.867-15.847,81.797-37.287,125.557-63.108 c43.062-25.408,82.783-52.69,115.914-79.439c15.512-12.524,29.585-24.933,41.871-36.976c19.655-19.269,34.017-36.92,42.686-52.464 C513.636,141.96,515.239,123.36,506.346,108.288z"/> </g>
</svg>